<svg xmlns="http://www.w3.org/2000/svg" viewBox="0 0 512 512">
  <defs>
    <linearGradient id="bg" x1="0" y1="0" x2="0" y2="1">
      <stop offset="0" stop-color="#5b3d99"/>
      <stop offset="1" stop-color="#b06cc4"/>
    </linearGradient>
    <linearGradient id="i-horn" x1="0" y1="1" x2="0.4" y2="0">
      <stop offset="0" stop-color="#f6dd8d"/><stop offset="1" stop-color="#e9b64d"/>
    </linearGradient>
    <linearGradient id="i-mane" x1="0" y1="0" x2="1" y2="1">
      <stop offset="0" stop-color="#f9a8cf"/><stop offset=".55" stop-color="#d98ae0"/><stop offset="1" stop-color="#9d7bec"/>
    </linearGradient>
    <linearGradient id="i-mane2" x1="0" y1="0" x2="0" y2="1">
      <stop offset="0" stop-color="#fac1dc"/><stop offset="1" stop-color="#b78ae6"/>
    </linearGradient>
    <linearGradient id="i-face" x1="0" y1="0" x2="0" y2="1">
      <stop offset="0" stop-color="#ffffff"/><stop offset="1" stop-color="#f3ecfa"/>
    </linearGradient>
  </defs>
  <rect width="512" height="512" rx="110" fill="url(#bg)"/>
  <g fill="#f5d76e">
    <path d="M418 96 l7 15 16 2.3 -11.6 11.2 2.8 16 -14.2 -7.8 -14.2 7.8 2.8 -16 -11.6 -11.2 16 -2.3 Z"/>
    <circle cx="428" cy="220" r="9"/>
    <circle cx="84" cy="88" r="10"/>
    <path d="M62 240 l5 10.7 11.7 1.7 -8.5 8.2 2 11.6 -10.2 -5.5 -10.2 5.5 2 -11.6 -8.5 -8.2 11.7 -1.7 Z"/>
  </g>
  <g transform="translate(28 68) scale(1.72)">
    <path fill="url(#i-mane2)" d="M78 78 C58 92 52 122 62 148 C68 166 82 180 100 186 C88 166 84 146 90 124 C94 106 88 88 78 78 Z"/>
    <path fill="url(#i-horn)" d="M118 62 C116 44 122 20 134 6 C138 24 138 48 132 64 Z"/>
    <path fill="#c9922f" opacity=".5" d="M121 46 L133 41 L132.4 46.5 L121.5 51 Z M125 28 L135 24 L134.6 29 L125.5 33 Z"/>
    <path fill="url(#i-face)" d="M156 52 C160 38 172 28 186 26 C184 42 176 56 164 62 Z"/>
    <path fill="#f2b8d4" d="M162 50 C165 42 172 35 179 33 C177 43 172 52 165 56 Z"/>
    <path fill="url(#i-face)" d="M96 74 C110 56 138 50 160 58 C182 66 196 84 198 106 C200 124 192 140 176 148 C186 152 192 160 192 170 C192 182 182 190 168 190 L120 190 C96 190 78 172 74 148 C70 122 80 92 96 74 Z"/>
    <path fill="#f6e3f0" d="M170 148 C184 152 191 160 191 170 C191 181 182 189 169 189 L146 189 C146 168 155 152 170 148 Z"/>
    <path d="M176 168 C179 166 182 167 183 170" fill="none" stroke="#8d6bb0" stroke-width="4" stroke-linecap="round"/>
    <path d="M158 176 C163 181 170 181 174 177" fill="none" stroke="#8d6bb0" stroke-width="4" stroke-linecap="round"/>
    <ellipse cx="128" cy="122" rx="13" ry="16" fill="#3d2b66"/>
    <circle cx="132.5" cy="115.5" r="4.6" fill="#fff"/>
    <circle cx="123.5" cy="127" r="2.3" fill="#fff" opacity=".85"/>
    <path d="M112 106 C116 102 121 100 126 100" fill="none" stroke="#3d2b66" stroke-width="3.4" stroke-linecap="round"/>
    <ellipse cx="112" cy="146" rx="12" ry="8" fill="#f8a8c8" opacity=".55"/>
    <path fill="url(#i-mane)" d="M92 70 C104 50 132 42 156 50 C142 54 132 62 126 74 C138 68 152 68 162 74 C148 78 140 88 138 100 C132 86 120 78 106 78 C112 88 112 100 106 110 C100 96 94 84 92 70 Z"/>
    <path fill="url(#i-mane2)" d="M86 84 C76 100 74 124 82 144 C90 162 104 174 122 178 C108 160 102 138 106 116 C96 112 88 100 86 84 Z"/>
  </g>
</svg>
